<svg width="154" height="154" viewBox="0 0 154 154" fill="none" xmlns="http://www.w3.org/2000/svg">
<path d="M83.7908 50.2588C83.1546 50.5853 84.2032 51.7558 84.4454 50.8452C84.4838 50.5654 84.0767 50.1116 83.7908 50.2588Z" fill="#0A0A0A"/>
<path d="M87.4814 49.2354C87.5198 48.9557 87.1135 48.5042 86.8268 48.6498C86.1921 48.981 87.2392 50.1461 87.4814 49.2354Z" fill="#0A0A0A"/>
<path d="M51.1007 96.1365C51.0017 96.1596 50.9159 96.2212 50.8623 96.3076C50.8087 96.394 50.7916 96.4981 50.8148 96.5972C50.838 96.6962 50.8995 96.7819 50.9859 96.8355C51.0723 96.8891 51.1765 96.9062 51.2755 96.8831C56.9895 95.5556 62.917 95.4294 68.6824 96.5124C74.4478 97.5954 79.9255 99.8641 84.7683 103.175C84.8501 103.175 84.9298 103.149 84.9958 103.1C85.0617 103.052 85.1104 102.984 85.1347 102.905C85.1591 102.827 85.1577 102.743 85.131 102.666C85.1042 102.589 85.0534 102.522 84.986 102.476C80.0881 99.1231 74.5453 96.8279 68.7111 95.7365C62.8769 94.645 56.8793 94.7812 51.1007 96.1365Z" fill="#0A0A0A"/>
<path d="M87.297 100.063C78.511 94.5681 68.6918 90.8749 58.2739 92.4072C58.1759 92.4236 58.0882 92.4773 58.029 92.557C57.9699 92.6367 57.944 92.7363 57.9568 92.8348C57.9696 92.9332 58.0202 93.0228 58.0977 93.0848C58.1753 93.1467 58.2739 93.1762 58.3727 93.1669C64.7955 92.3248 71.3269 93.1702 77.3237 95.6198C80.6311 97.0858 83.8286 98.788 86.8915 100.713C86.9778 100.767 87.0819 100.784 87.181 100.761C87.28 100.738 87.3659 100.677 87.4196 100.591C87.4734 100.504 87.4907 100.4 87.4677 100.301C87.4447 100.202 87.3833 100.116 87.297 100.063Z" fill="#0A0A0A"/>
<path d="M65.1334 89.6124C65.0317 89.616 64.9357 89.6599 64.8664 89.7344C64.7971 89.8089 64.7603 89.9078 64.7639 90.0095C64.7676 90.1111 64.8115 90.2071 64.8859 90.2764C64.9604 90.3457 65.0593 90.3826 65.161 90.3789C73.9988 90.0653 82.6477 92.9847 89.4876 98.59C89.8609 98.9089 90.3676 98.3094 89.9743 97.9975C82.9761 92.2983 74.1539 89.3203 65.1334 89.6124Z" fill="#0A0A0A"/>
<path d="M63.0253 86.8215C62.9236 86.829 62.8291 86.8765 62.7624 86.9536C62.6958 87.0307 62.6625 87.1311 62.67 87.2328C62.6774 87.3344 62.7249 87.429 62.802 87.4956C62.8791 87.5622 62.9796 87.5955 63.0812 87.5881C73.7584 86.7974 84.3291 90.1553 92.5926 96.9628C92.9629 97.2824 93.4741 96.683 93.0786 96.371C84.6575 89.449 73.8973 86.03 63.0253 86.8215Z" fill="#0A0A0A"/>
<path d="M66.7516 85.1015C71.9173 84.3913 77.1768 84.8646 82.1326 86.4856C87.0885 88.1066 91.6111 90.8329 95.3585 94.4585C95.7035 94.8073 96.2592 94.2515 95.8913 93.9081C92.0551 90.2088 87.4309 87.4265 82.3657 85.7698C77.3005 84.1131 71.9258 83.6252 66.6451 84.3426C66.5464 84.3589 66.4579 84.4131 66.3987 84.4937C66.3394 84.5744 66.314 84.675 66.3279 84.774C66.3419 84.8731 66.394 84.9628 66.4731 85.024C66.5523 85.0852 66.6522 85.113 66.7516 85.1015Z" fill="#0A0A0A"/>
<path d="M27.4693 86.8591C25.3882 87.362 25.2295 90.2779 27.5804 90.3085C30.7531 90.3261 30.8229 86.0481 27.4693 86.8591ZM29.079 88.8475C28.8535 89.1193 28.5568 89.3228 28.2221 89.4353C27.8874 89.5478 27.528 89.5649 27.1841 89.4845C26.1386 89.1012 26.6246 87.8617 27.7039 87.5889C28.5424 87.1857 29.66 88.0028 29.0782 88.8475H29.079Z" fill="#0A0A0A"/>
<path d="M117.339 96.6692C116.912 96.6692 116.717 96.6692 115.603 103.73C115.067 107.115 114.565 110.691 114.477 111.349C114.524 112.139 116.057 111.768 116.604 111.886C129.343 111.729 129.651 97.6174 117.339 96.6692ZM124.035 108.272C121.824 110.716 118.139 111.312 115.29 111.059C115.741 107.763 117.069 98.8408 117.551 97.4442C123.528 97.7423 128.327 103.527 124.035 108.272Z" fill="#0A0A0A"/>
<path d="M149.307 42.4241C147.886 41.3563 146.202 42.2631 144.928 41.1294C144.8 41.0057 144.648 40.9101 144.481 40.8489C144.315 40.7877 144.137 40.7622 143.96 40.774C143.783 40.7859 143.61 40.8348 143.453 40.9177C143.296 41.0006 143.158 41.1155 143.048 41.2551C142.61 41.7958 142.356 42.4624 142.323 43.1576C137.807 47.8097 132.458 51.404 124.079 53.433C125.832 51.635 127.264 49.55 128.313 47.2685C130.843 41.0987 120.592 36.3838 116.125 35.2631C115.927 34.4268 116.533 33.0916 116.779 32.2346C117.059 31.1055 116.242 30.5482 115.645 30.8548C114.172 31.3408 113.465 32.9643 112.611 34.0827C110.94 36.3056 112.2 36.9763 114.162 37.9797C114.104 38.0556 114.078 38.1515 114.089 38.2465C114.101 38.3416 114.15 38.428 114.226 38.4872C115.239 39.4944 120.205 43.442 118.267 44.9444C117.218 45.7546 114.076 48.1822 112.252 49.7345C108.693 49.5628 107.14 49.5543 104.841 49.9506C104.813 49.9556 104.788 49.9696 104.769 49.9905C104.75 50.0114 104.739 50.038 104.737 50.066C104.735 50.0941 104.743 50.122 104.758 50.1454C104.774 50.1688 104.797 50.1863 104.823 50.1951C111.603 53.4652 112.822 62.2243 110.631 68.4769C112.135 68.3727 114.774 68.5413 116.023 67.9595C120.745 67.4911 127.42 66.1965 130.935 64.1981C134.533 62.2387 137.651 59.5051 140.065 56.1945C142.478 52.8839 144.126 49.0789 144.891 45.054C146.262 44.5429 147.669 44.133 149.101 43.8276C149.764 43.7233 150.25 42.7575 149.307 42.4241ZM119.138 37.0913C123.268 38.7079 129.469 42.6778 127.615 46.9504C126.423 49.5461 124.72 51.874 122.605 53.794C121.855 53.9764 120.866 54.1711 120.1 54.3413C122.335 52.1143 124.369 49.6933 126.177 47.1068C126.684 46.4558 127.005 45.6797 127.106 44.8609C126.713 42.1818 124.193 41.4176 122.11 39.9934C121.033 39.3935 119.996 38.725 119.004 37.992C119.094 37.7001 119.139 37.3965 119.138 37.0913ZM114.932 37.5328L113.287 36.6314C112.871 36.4076 112.443 36.0542 112.654 35.5414C113.149 34.6352 113.713 33.7685 114.341 32.949C114.708 32.2973 115.3 31.8017 116.006 31.5547C116.061 31.5823 116.099 31.803 116.052 32.0046C115.667 33.0255 115.401 34.0872 115.258 35.1688C115.213 35.3913 115.225 35.6213 115.292 35.8381C115.359 36.0549 115.479 36.2514 115.641 36.4099C115.547 36.8567 115.295 37.255 114.932 37.5328ZM115.96 39.0115C115.693 38.7669 115.44 38.514 115.183 38.294C115.552 38.0683 115.861 37.7555 116.081 37.3831C116.302 37.0107 116.427 36.59 116.448 36.1577C117.052 36.3409 117.688 36.5532 118.325 36.7847C118.643 38.1951 117.293 39.6891 115.96 39.0115ZM111.338 50.4374C111.755 50.3998 112.25 50.6397 112.625 50.4266C114.413 48.8936 117.667 46.3794 118.715 45.5691C120.838 43.8613 118.222 41.3586 116.836 39.9152C117.224 39.899 117.601 39.7798 117.929 39.5698C118.256 39.3598 118.522 39.0666 118.698 38.7202C120.791 40.5767 125.7 41.9971 126.341 44.8202C126.248 45.4925 125.976 46.1276 125.555 46.6599C123.686 49.3381 121.572 51.8367 119.241 54.1236C118.862 53.6637 117.944 52.5545 117.451 53.2421C117.431 53.2885 117.421 53.3383 117.42 53.3887C117.42 53.4391 117.429 53.4891 117.448 53.5359C117.467 53.5827 117.495 53.6253 117.53 53.6613C117.565 53.6973 117.607 53.726 117.654 53.7457C118.117 53.9648 118.501 54.3206 118.756 54.7652C119.014 55.7257 120.686 54.9101 121.372 54.8541C129.473 53.2383 136.772 49.8954 141.121 45.3491C141.623 45.4653 142.078 45.7329 142.424 46.1157C138.062 57.0196 128.946 63.371 117.38 63.6163C117.772 58.5695 116.184 52.8964 111.338 50.4374ZM139.06 56.3397C133.983 63.5289 125.966 66.1444 116.92 67.0903C117.161 66.208 117.297 65.3002 117.323 64.3859C129.119 64.1621 138.436 57.757 142.981 46.7465C144.347 48.4728 140.351 54.5122 139.06 56.3397ZM143.877 46.164C143.844 46.3004 143.801 46.4346 143.765 46.5702C143.309 45.7413 142.585 45.0914 141.712 44.7267C142.068 44.3726 142.563 43.6076 143.076 43.8023C143.304 43.8807 143.511 44.0101 143.68 44.1808C143.85 44.3514 143.979 44.5587 144.056 44.7867C144.133 45.0146 144.158 45.2573 144.127 45.4961C144.096 45.7348 144.01 45.9633 143.877 46.164ZM144.716 44.2729C144.367 43.7579 143.888 43.3454 143.326 43.0779C142.802 43.0894 143.47 41.9082 143.637 41.7388C144.147 40.845 145.607 43.3094 148.237 43.2557C147.045 43.5301 145.87 43.8697 144.716 44.2729Z" fill="#0A0A0A"/>
<path d="M86.1641 48.1907C86.5251 48.0903 86.9368 47.8343 87.2626 48.0083C87.357 48.046 87.4625 48.0446 87.556 48.0045C87.6494 47.9644 87.7231 47.8888 87.7608 47.7944C87.7985 47.7 87.7972 47.5944 87.7571 47.501C87.717 47.4075 87.6414 47.3339 87.5469 47.2962C87.0931 47.0754 85.5662 47.1819 85.8353 48.0052C85.8694 48.0619 85.9176 48.1087 85.9753 48.1412C86.0329 48.1738 86.0979 48.1908 86.1641 48.1907Z" fill="#0A0A0A"/>
<path d="M83.356 50.2273C83.4374 49.9442 83.6048 49.6935 83.835 49.5098C83.9164 49.4488 83.9701 49.358 83.9845 49.2574C83.9989 49.1568 83.9727 49.0546 83.9117 48.9733C83.8507 48.8919 83.7599 48.8382 83.6593 48.8238C83.5587 48.8094 83.4564 48.8356 83.3751 48.8966C83.0051 49.1866 82.738 49.5878 82.6132 50.041C82.5935 50.1377 82.6118 50.2383 82.6644 50.3218C82.717 50.4053 82.7998 50.4653 82.8955 50.4893C82.9912 50.5133 83.0925 50.4995 83.1783 50.4507C83.2641 50.4019 83.3277 50.3219 83.356 50.2273Z" fill="#0A0A0A"/>
<path d="M87.211 52.1897C86.8546 52.5362 87.4065 53.0881 87.753 52.7317C87.9063 52.5784 88.0366 52.4312 88.1684 52.2802C87.9745 52.6167 87.7591 53.0682 88.3355 53.154C89.0883 52.9386 89.1021 51.818 88.6353 51.2914C88.042 50.7832 87.6349 51.8977 87.211 52.1897Z" fill="#0A0A0A"/>
<path d="M85.661 51.9897C86.1132 52.2028 87.0813 51.4685 86.5287 51.0032C86.2818 50.8093 85.9921 51.0799 85.881 51.2531C85.6671 51.0132 86.1646 49.3529 85.4525 49.3812C85.3508 49.3812 85.2533 49.4216 85.1815 49.4935C85.1096 49.5654 85.0692 49.6628 85.0692 49.7645C85.119 50.3823 84.8239 51.7958 85.661 51.9897Z" fill="#0A0A0A"/>
<path d="M133.404 98.256C130.893 93.1708 124.589 90.1584 117.205 88.9396C120.265 86.1839 121.485 85.0433 121.56 84.8931C121.874 83.6505 121.657 79.3533 122.264 78.2097C122.296 78.1281 122.3 78.0388 122.277 77.9546C122.255 77.8703 122.206 77.7954 122.138 77.7406C117.916 74.8611 113.299 72.6098 108.43 71.0572C112.704 64.3209 110.891 52.2297 102.033 49.9508C103.703 47.5676 101.961 43.9266 99.0371 44.1665C97.1056 44.1955 95.1799 44.3844 93.2797 44.7314C93.7633 44.3237 93.5096 43.4283 93.1632 43.1003C94.7177 42.2257 92.7462 39.4715 91.2468 39.6095C91.3235 38.429 90.5002 36.272 89.1166 37.2118C88.7115 36.615 88.1986 36.099 87.6043 35.6902C86.8301 35.2303 85.8359 35.1238 85.4082 35.9577C84.769 35.5478 84.0494 35.2794 83.2979 35.1705C82.3229 35.1567 81.4582 35.7837 81.5763 36.6583C80.5399 36.4284 79.3993 36.538 78.8352 37.5782C78.563 38.2029 79.1793 38.5578 78.2097 38.5118C76.8506 38.6352 75.9867 40.4872 77.3665 41.3564C75.8603 41.7006 74.6836 44.4287 76.7349 44.8587C76.0097 45.8552 75.513 47.3407 76.3401 48.3441C65.6892 50.1271 57.1998 51.6118 49.1727 53.2001C45.2979 54.9462 42.3981 57.2458 38.6843 59.179C38.5972 59.2242 38.5308 59.3011 38.4988 59.3938C38.4667 59.4865 38.4714 59.5879 38.5118 59.6773C39.0775 60.9221 49.4058 61.8235 51.47 61.9945C60.9617 60.6193 70.3724 58.7342 79.6615 56.3475C76.4129 58.946 71.7716 61.3744 71.3684 66.0096C61.2073 64.8544 51.7291 66.3261 43.7035 71.4404C30.1244 79.5005 16.0479 87.5813 3.47217 97.5607C3.82707 99.8979 4.62196 102.256 4.74078 104.454C4.74831 104.539 4.78406 104.619 4.84234 104.682C4.90063 104.744 4.97811 104.785 5.06249 104.799C5.14687 104.812 5.23329 104.797 5.30805 104.756C5.38281 104.714 5.44161 104.649 5.47511 104.571C14.5585 101.915 24.8262 101.847 34.2307 103.931C41.883 105.274 39.3581 108.866 41.6784 109.373C41.8171 109.407 44.4018 109.728 44.4379 109.686C44.9231 109.644 45.1415 109.092 45.1277 108.712C45.4037 105.186 47.4841 105.103 50.8476 105.263C66.53 106.281 72.1763 108.858 85.1767 117.144C85.2254 117.176 85.2809 117.196 85.3388 117.202C85.3966 117.208 85.4551 117.201 85.5095 117.18C85.5639 117.16 85.6127 117.127 85.652 117.084C85.6913 117.041 85.7199 116.989 85.7355 116.933C93.4644 110.034 104.834 100.01 109.893 95.4704C107.947 103.452 106.169 111.525 104.161 121.478C104.151 121.53 104.151 121.583 104.162 121.634C104.174 121.685 104.195 121.734 104.226 121.777C104.256 121.819 104.295 121.855 104.34 121.882C104.386 121.909 104.436 121.927 104.488 121.933C112.451 122.951 122.749 123.202 129.046 118.134C135.048 113.626 137.132 104.806 133.404 98.256ZM99.0547 44.933C101.77 44.9131 102.69 47.9126 101.214 49.7461C100.166 49.4997 99.0945 49.3711 98.0184 49.3628C98.1947 48.5847 98.1551 47.7733 97.9038 47.0161C97.6525 46.2589 97.1991 45.5847 96.5926 45.0664C97.4021 44.9898 98.2246 44.9399 99.0547 44.933ZM96.854 60.2C96.6394 59.2204 97.5048 59.074 97.7186 60.0605C98.1261 63.0639 97.7957 66.1214 96.7559 68.9684C92.9051 68.4595 88.9882 68.9071 85.3514 70.2715C84.1463 69.6058 82.8922 69.0328 81.6 68.5575C83.5509 67.1517 86.0337 65.1779 87.9461 63.8893C89.9128 66.2557 92.6406 67.8651 95.6628 68.4425C95.7494 68.4396 95.8326 68.4086 95.9001 68.3543C95.9675 68.3 96.0155 68.2252 96.0369 68.1413C96.915 65.592 97.1946 62.8748 96.854 60.2ZM92.9363 49.0792C93.2363 48.5419 93.3862 47.9338 93.3702 47.3186C93.3541 46.7034 93.1727 46.1039 92.845 45.5831C93.6583 45.4551 94.5529 45.2665 95.4512 45.1998C96.1839 45.5918 96.7592 46.2243 97.0803 46.9907C97.4014 47.7572 97.4487 48.6108 97.2143 49.4081C95.8889 49.5177 93.2774 49.7783 92.3851 49.868C92.0479 49.6234 92.8657 49.4487 92.9363 49.0792ZM82.9384 47.691C84.0706 48.1693 85.1337 47.1682 85.5714 46.1196C85.9698 46.2811 86.4108 46.3039 86.8237 46.1845C87.2366 46.0651 87.5974 45.8103 87.848 45.4612C87.9877 45.586 88.1601 45.6682 88.3449 45.6982C88.5298 45.7282 88.7193 45.7048 88.8913 45.6306C89.1136 46.0016 89.6264 46.6777 90.0204 47.1866C89.9946 47.5 90.0519 47.8147 90.1867 48.0988C90.274 48.2722 90.4145 48.413 90.5878 48.5006C90.761 48.5881 90.9577 48.6178 91.1491 48.5852C91.3404 48.5526 91.5163 48.4594 91.6507 48.3194C91.7852 48.1795 91.8712 48 91.8961 47.8075C91.8899 47.7041 92.1874 47.7094 92.287 47.4956C92.4547 47.282 92.5367 47.0136 92.517 46.7428C92.6925 47.4772 92.6289 48.8431 91.7466 49.0531C91.4477 49.07 91.1648 49.4364 91.3426 49.7147C92.0061 50.842 92.8306 51.8664 93.7902 52.7555C94.0539 54.9646 90.6474 57.7962 89.25 55.0827C89.7628 54.6189 89.9468 55.2191 90.3508 55.5633C90.5807 55.7933 90.9709 55.41 90.7386 55.1754C90.4411 54.9291 90.1799 54.6418 89.9629 54.3223C89.8862 54.169 89.7329 54.169 89.575 54.2456C88.7307 54.8767 87.6741 55.1548 86.6285 55.0214C86.0364 54.875 85.4801 54.6099 84.9935 54.2422C84.5069 53.8744 84.1001 53.4117 83.7977 52.882C83.7364 52.5117 83.6329 51.8939 83.1354 51.6555C82.5521 51.2362 82.3934 50.2696 82.0967 49.6066C82.5058 49.0326 82.7923 48.3805 82.9384 47.691ZM86.9405 55.5733C85.0686 56.7108 82.2646 55.0666 82.1328 52.9556C82.1451 52.787 82.2214 52.6296 82.3462 52.5155C82.4709 52.4015 82.6345 52.3395 82.8035 52.3423C82.9875 52.4665 83.022 52.9464 83.0718 53.1648C83.2029 53.6884 83.8329 54.5246 84.3113 54.3284C85.004 55.0537 85.9404 55.4971 86.9405 55.5733ZM42.5775 60.1724C41.5726 60.0367 40.5789 59.8284 39.6041 59.5492C40.6382 59.2212 41.6669 57.7096 42.7093 58.5106C42.9025 58.7973 42.4349 58.9314 42.4334 59.1966C42.3682 59.6382 42.9278 59.5508 43.088 59.8344C43.0362 59.9281 42.963 60.0081 42.8742 60.068C42.7855 60.1278 42.6838 60.1657 42.5775 60.1786V60.1724ZM51.3926 61.2119C48.7818 60.9957 45.9556 60.6753 43.6767 60.3441C43.7486 60.2457 43.7989 60.1333 43.8246 60.0142C43.8503 59.8951 43.8507 59.7719 43.8258 59.6526C43.8008 59.5333 43.7512 59.4206 43.6799 59.3217C43.6087 59.2228 43.5175 59.14 43.4122 59.0786C43.4776 58.9477 43.5135 58.8041 43.5177 58.6578C43.5218 58.5116 43.494 58.3662 43.4362 58.2318C43.3784 58.0974 43.292 57.9772 43.1831 57.8796C43.0741 57.782 42.9451 57.7093 42.8052 57.6667C44.9198 56.2816 47.1218 55.0346 49.3973 53.9336C50.2367 53.9696 51.0431 54.2712 51.7 54.795C52.3569 55.3188 52.8304 56.0378 53.0523 56.8481C53.2742 57.6585 53.2329 58.5184 52.9345 59.3038C52.6361 60.0892 52.0959 60.7595 51.3918 61.218L51.3926 61.2119ZM52.7724 61.0264C53.264 60.4717 53.6184 59.8092 53.8068 59.0923C53.9952 58.3754 54.0124 57.6243 53.857 56.8995C53.7016 56.1748 53.3779 55.4968 52.9121 54.9202C52.4464 54.3436 51.8515 53.8846 51.1757 53.5803C59.0786 52.0664 67.5756 50.5655 78.2005 48.8079C78.2273 49.5499 78.8497 50.4881 79.6661 50.0887C79.896 49.9354 79.9006 49.7262 80.1153 50.0558C80.206 50.1687 80.3194 50.2612 80.4482 50.3274C80.5771 50.3936 80.7184 50.4319 80.863 50.4398C81.0076 50.4478 81.1523 50.4252 81.2876 50.3736C81.4229 50.3219 81.5458 50.2424 81.6483 50.1401C81.8446 50.6581 82.0763 51.1618 82.342 51.6479C81.0849 52.0564 81.2191 53.5933 81.8453 54.5292C81.5493 54.727 81.271 54.9501 81.0136 55.1961C71.7121 57.6474 62.2851 59.5957 52.7739 61.0325L52.7724 61.0264ZM41.6393 108.413C41.5912 108.428 41.5407 108.434 41.4906 108.429C41.4404 108.425 41.3917 108.411 41.347 108.387C41.3024 108.364 41.2628 108.332 41.2305 108.294C41.1982 108.255 41.1737 108.211 41.1586 108.163C40.6144 106.426 39.5428 104.902 38.0928 103.802C36.6428 102.702 34.8863 102.081 33.0672 102.025C32.9655 102.025 32.868 101.985 32.7961 101.913C32.7243 101.841 32.6839 101.743 32.6839 101.642C32.6839 101.54 32.7243 101.443 32.7961 101.371C32.868 101.299 32.9655 101.258 33.0672 101.258C35.0503 101.311 36.9673 101.983 38.549 103.181C40.1306 104.378 41.2976 106.041 41.8861 107.936C41.9158 108.032 41.9066 108.136 41.8604 108.225C41.8143 108.314 41.7348 108.382 41.6393 108.413ZM41.8439 105.041C36.597 96.8387 14.8728 95.6774 5.83998 96.6624C17.2682 87.9408 29.8324 80.5254 41.9957 73.3414C50.564 67.5503 60.3924 65.4094 71.3577 66.7807C71.5355 69.0588 73.3085 69.2773 75.3865 69.3539C78.5676 69.3539 82.3114 65.8011 83.7072 62.5441C84.6949 60.6764 85.4937 58.7148 86.0919 56.6886C86.4814 56.634 86.8576 56.5085 87.2018 56.3183C85.2411 60.3955 84.509 65.5328 80.6695 68.28C80.3153 68.5368 80.6158 68.9523 80.9063 69.1048C82.2393 69.6238 83.3784 70.1013 84.5021 70.6708C83.0097 71.3109 81.4621 72.5105 80.011 73.0003C71.9525 68.001 60.7933 68.0432 51.4409 69.7042C42.8918 73.7615 35.6649 79.3533 27.4033 83.9349C22.1426 86.9849 16.7033 90.1384 11.5046 93.5525C11.4344 93.5988 11.3813 93.6668 11.3536 93.7462C11.3258 93.8256 11.325 93.9119 11.3511 93.9918C11.3773 94.0718 11.429 94.1409 11.4983 94.1885C11.5676 94.2361 11.6506 94.2597 11.7346 94.2555C19.053 93.7709 26.3975 94.6598 33.3891 96.8762C36.4751 97.8359 40.258 99.3521 42.1574 102.582C41.9093 103.376 41.8031 104.208 41.8439 105.039V105.041ZM46.8931 82.9599C39.2799 84.8241 40.3707 82.142 41.942 75.963C46.4071 73.5039 49.9645 69.9618 55.482 69.8307C63.8112 69.2175 72.4553 69.2436 79.3395 73.497C76.081 75.3451 72.824 77.3006 69.5969 79.361C69.0151 79.6132 68.4701 80.3468 67.8485 80.2341C60.788 80.4163 53.7654 81.3292 46.8931 82.9583V82.9599ZM66.9762 81.0366C64.5317 82.6295 62.0136 84.3526 59.3055 86.2858C58.4386 86.1716 56.6272 86.8385 56.0646 86.19C55.318 85.1353 55.528 83.3975 55.4291 82.1381C59.2554 81.566 63.1093 81.1978 66.9746 81.0351L66.9762 81.0366ZM33.6244 96.1465C26.9993 94.0568 20.0615 93.1337 13.1205 93.4184C22.3426 87.5498 31.8859 82.3804 41.0222 76.5325C38.9832 83.4152 39.8724 85.5868 47.087 83.7019C49.6099 83.1285 52.1423 82.643 54.6841 82.2455C54.6582 83.1975 54.7121 84.15 54.8451 85.0931C55.0574 87.0478 56.4149 87.5008 58.112 87.1375C53.9719 90.1811 50.0211 93.4741 46.2814 96.9981C44.7123 98.2868 43.4261 99.8854 42.5031 101.694C40.3553 98.5419 36.4391 97.0311 33.6229 96.145L33.6244 96.1465ZM61.4226 105.11C61.3936 105.208 61.327 105.289 61.2376 105.338C61.1482 105.386 61.0433 105.397 60.9459 105.368C61.0425 105.249 42.5292 100.664 44.1688 108.434C44.1797 108.483 44.1808 108.534 44.172 108.584C44.1632 108.633 44.1448 108.681 44.1177 108.723C44.0906 108.765 44.0554 108.802 44.0141 108.831C43.9729 108.86 43.9263 108.88 43.8771 108.891C43.828 108.902 43.7771 108.903 43.7276 108.894C43.678 108.886 43.6306 108.867 43.5881 108.84C43.5457 108.813 43.509 108.778 43.4801 108.737C43.4512 108.695 43.4308 108.649 43.4199 108.6C42.6143 105.346 45.7962 103.022 49.848 103.148C53.67 103.126 57.4771 103.625 61.1643 104.631C61.2126 104.646 61.2575 104.67 61.2965 104.701C61.3355 104.733 61.3678 104.772 61.3917 104.817C61.4155 104.861 61.4304 104.91 61.4355 104.96C61.4405 105.01 61.4356 105.061 61.4211 105.109L61.4226 105.11ZM72.6861 104.451C72.6537 104.547 72.5844 104.627 72.4934 104.672C72.4025 104.718 72.2972 104.725 72.2008 104.693C72.1242 104.666 64.2987 102.051 58.5413 101.249C52.4228 100.396 46.1541 101.708 44.27 104.233C43.9887 104.637 43.3456 104.17 43.6568 103.773C46.0146 100.611 53.1365 99.7193 58.6486 100.487C64.4742 101.3 72.3695 103.937 72.4461 103.964C72.5421 103.997 72.6211 104.066 72.6658 104.157C72.7105 104.248 72.7172 104.353 72.6845 104.45L72.6861 104.451ZM84.414 106.641C81.8781 104.526 78.9627 102.913 75.8235 101.889C70.161 99.8595 64.1826 98.8542 58.168 98.9198C53.9091 99.1413 44.6701 99.533 42.5951 104.383C42.7293 101.638 44.6464 99.4909 46.8041 97.5607C56.9522 87.8335 72.4193 77.9376 84.5604 71.491C87.5069 69.9196 91.5243 69.3087 96.4922 69.6721C96.2055 70.0944 95.9487 71.4979 95.4466 71.3163C92.7183 70.9494 89.9568 70.8964 87.2164 71.1584C87.1661 71.1627 87.1171 71.1769 87.0722 71.2001C87.0274 71.2234 86.9876 71.2553 86.9551 71.2939C86.9225 71.3326 86.8979 71.3772 86.8827 71.4254C86.8674 71.4736 86.8618 71.5242 86.8661 71.5746C86.8748 71.6762 86.9236 71.7702 87.0017 71.8359C87.0403 71.8685 87.085 71.8931 87.1332 71.9083C87.1813 71.9236 87.232 71.9292 87.2823 71.9249C89.9399 71.6713 92.6176 71.7196 95.2642 72.069C94.7921 72.8378 94.2605 73.5685 93.6744 74.2544C93.6181 74.1802 93.5361 74.1296 93.4445 74.1126C90.6415 73.6425 87.7869 73.5627 84.962 73.8757C84.9117 73.8812 84.863 73.8965 84.8186 73.9209C84.7742 73.9452 84.735 73.978 84.7033 74.0175C84.6716 74.057 84.6479 74.1023 84.6337 74.1509C84.6195 74.1995 84.6151 74.2504 84.6206 74.3007C84.626 74.3511 84.6414 74.3998 84.6657 74.4442C84.69 74.4886 84.7229 74.5278 84.7623 74.5595C84.8018 74.5912 84.8471 74.6149 84.8957 74.629C84.9443 74.6432 84.9953 74.6477 85.0456 74.6422C87.7657 74.3414 90.5141 74.4139 93.2145 74.8576C92.6059 75.4931 91.8478 76.7088 90.9916 76.8376C90.7677 76.7165 82.2363 74.8791 84.509 76.5816C86.4761 76.7144 88.4284 77.0126 90.3454 77.473C89.4639 78.2304 88.0274 78.0196 87.1574 78.7263C86.7159 78.9064 86.4307 79.4239 86.676 79.745C85.8328 79.6101 79.6944 78.4419 79.6553 79.4568C79.6553 79.5585 79.6957 79.6559 79.7676 79.7278C79.8395 79.7997 79.937 79.8401 80.0386 79.8401C81.0244 79.9497 87.4142 79.8347 86.0796 81.0274C85.7477 81.5004 85.6351 82.5651 86.3985 82.6318C86.5871 82.5597 86.4146 83.1507 86.6062 83.35C81.5669 81.415 76.1491 80.6688 70.7743 81.1692C70.6727 81.1788 70.579 81.2283 70.5139 81.307C70.4487 81.3856 70.4175 81.4869 70.4271 81.5885C70.4366 81.6902 70.4862 81.7839 70.5648 81.849C70.6434 81.9141 70.7447 81.9453 70.8464 81.9358C81.5134 80.8358 91.8915 85.1744 99.2709 92.6404C99.3458 92.6406 99.4191 92.6188 99.4818 92.5777C99.5445 92.5367 99.5937 92.4781 99.6235 92.4094C99.6533 92.3406 99.6622 92.2647 99.6493 92.1909C99.6363 92.1171 99.602 92.0487 99.5506 91.9942C96.1417 88.3883 92.0007 85.5536 87.4057 83.6804C87.6026 83.5852 87.7665 83.4333 87.8764 83.2442C87.8819 83.3735 87.9248 83.4984 87.9997 83.6039C88.0746 83.7094 88.1785 83.791 88.2987 83.8388C88.4189 83.8866 88.5504 83.8986 88.6773 83.8733C88.8042 83.8481 88.9211 83.7867 89.0139 83.6965C89.6265 82.9983 90.3191 82.3747 91.0774 81.8384C94.9513 83.3603 98.4467 85.7089 101.32 88.7203C101.354 88.7587 101.395 88.7898 101.442 88.8119C101.488 88.8339 101.539 88.8463 101.59 88.8485C101.641 88.8507 101.693 88.8425 101.741 88.8245C101.789 88.8065 101.833 88.7789 101.87 88.7436C101.907 88.7082 101.937 88.6657 101.958 88.6186C101.978 88.5716 101.989 88.5208 101.989 88.4695C101.99 88.4181 101.98 88.3671 101.961 88.3196C101.941 88.2722 101.912 88.2291 101.876 88.193C99.1748 85.3661 95.9365 83.1073 92.3506 81.5494C94.2021 81.402 96.0141 80.9351 97.7064 80.1697C100.675 81.6661 103.412 83.5839 105.832 85.8635C105.868 85.8998 105.911 85.9284 105.959 85.9477C106.006 85.967 106.057 85.9766 106.108 85.9759C106.159 85.9751 106.21 85.9641 106.257 85.9435C106.304 85.9228 106.346 85.893 106.382 85.8557C106.417 85.8184 106.444 85.7744 106.462 85.7263C106.48 85.6782 106.488 85.6271 106.486 85.5758C106.483 85.5246 106.471 85.4743 106.449 85.428C106.427 85.3817 106.396 85.3403 106.357 85.3062C104.034 83.1194 101.424 81.2575 98.6009 79.7711C99.8692 79.189 101.086 78.5011 102.239 77.7145C105.114 79.1253 107.763 80.9573 110.097 83.15C110.451 83.4964 110.992 82.9277 110.622 82.5919C108.333 80.4443 105.749 78.6344 102.948 77.217C103.862 76.5386 104.718 75.7861 105.508 74.9672C108.175 76.1564 110.689 77.6625 112.996 79.453C113.037 79.4835 113.083 79.5059 113.131 79.5187C113.18 79.5315 113.231 79.5345 113.281 79.5277C113.331 79.5208 113.38 79.5041 113.423 79.4786C113.467 79.4531 113.505 79.4193 113.536 79.379C113.566 79.3387 113.588 79.2929 113.601 79.244C113.614 79.1951 113.617 79.1441 113.61 79.0941C113.603 79.044 113.587 78.9958 113.561 78.9521C113.536 78.9085 113.502 78.8703 113.462 78.8398C111.178 77.0694 108.698 75.5695 106.069 74.3701C106.801 73.5524 107.462 72.6738 108.045 71.744C112.657 73.1966 117.043 75.288 121.076 77.9575C118.902 79.1617 109.194 87.0025 105.387 89.7782C103.833 90.9172 84.4937 106.555 84.414 106.64V106.641ZM89.3796 80.7277C88.6506 80.2563 87.5161 82.1949 87.277 82.7031C87.4931 81.8498 87.9747 81.0873 88.6521 80.5254C88.7263 80.4626 88.7741 80.3742 88.7862 80.2778C88.7984 80.1814 88.7739 80.084 88.7176 80.0048C88.6613 79.9256 88.5774 79.8704 88.4824 79.8501C88.3873 79.8298 88.2882 79.8459 88.2045 79.8953C88.4136 79.7693 88.6334 79.6621 88.8614 79.5749C88.9386 79.545 89.004 79.491 89.048 79.4209C89.0919 79.3507 89.112 79.2683 89.1052 79.1858C89.0983 79.1033 89.065 79.0253 89.0102 78.9633C88.9553 78.9014 88.8819 78.8588 88.8008 78.8421C90.1515 78.2204 91.2537 79.5319 91.4638 80.7254C90.3749 81.2646 89.4197 82.0394 88.6675 82.9936C88.7719 82.3542 89.0291 81.7494 89.4171 81.2306C89.4729 81.156 89.4996 81.0637 89.4922 80.9709C89.4849 80.878 89.444 80.7911 89.3773 80.7262L89.3796 80.7277ZM85.7102 115.944L85.4342 112.021C87.5595 110.104 89.8441 108.37 92.2632 106.84C92.349 106.785 92.4096 106.699 92.4317 106.599C92.4538 106.5 92.4355 106.396 92.3809 106.31C92.3263 106.225 92.2399 106.164 92.1406 106.142C92.0414 106.12 91.9374 106.138 91.8516 106.193C89.566 107.642 87.3977 109.269 85.3668 111.058L85.2664 109.628L104.01 94.3275C104.049 94.2957 104.082 94.2564 104.106 94.2121C104.129 94.1677 104.144 94.1191 104.149 94.069C104.154 94.0189 104.149 93.9682 104.135 93.92C104.12 93.8718 104.097 93.8269 104.065 93.7879C104.033 93.7489 103.994 93.7165 103.949 93.6927C103.905 93.6688 103.856 93.654 103.806 93.6489C103.756 93.6438 103.705 93.6487 103.657 93.6632C103.609 93.6777 103.564 93.7016 103.525 93.7334L85.2004 108.694L85.0962 107.211C94.9484 99.5897 95.3876 98.0781 112.605 85.2633C114.633 83.6865 119.147 80.0087 121.329 78.6711C121.103 79.976 120.986 81.2975 120.979 82.6218L111.203 90.55C111.142 90.6 111.098 90.6677 111.076 90.7439C111.055 90.8201 111.058 90.901 111.084 90.9756C111.11 91.0502 111.159 91.1147 111.224 91.1604C111.289 91.2061 111.366 91.2307 111.445 91.2307C111.65 91.2307 110.915 91.7673 120.95 83.6359C120.935 84.0759 120.92 84.437 120.907 84.5014C120.178 85.3982 92.589 109.837 85.7102 115.943V115.944ZM131.899 106.511L134.471 106.646C134.23 109.883 132.947 112.955 130.814 115.402C130.251 114.937 128.744 113.102 128.183 113.754C128.128 113.84 128.11 113.944 128.132 114.043C128.155 114.143 128.215 114.229 128.301 114.283C129.031 114.762 129.7 115.327 130.294 115.966C128.167 118.147 125.504 119.73 122.573 120.556L121.897 118.123C121.867 118.028 121.802 117.948 121.714 117.9C121.626 117.852 121.524 117.84 121.428 117.867C121.332 117.894 121.25 117.957 121.199 118.043C121.149 118.129 121.134 118.232 121.158 118.328L121.841 120.781C118.953 121.537 115.968 121.855 112.986 121.725L113.375 119.131C113.385 119.033 113.357 118.934 113.297 118.856C113.236 118.778 113.148 118.727 113.051 118.712C112.953 118.697 112.854 118.721 112.773 118.778C112.692 118.835 112.637 118.921 112.618 119.017L112.213 121.716C109.802 121.68 107.394 121.517 105.001 121.227C107.056 111.059 108.875 102.849 110.887 94.6594C113.11 92.4848 115.214 90.7923 116.672 89.4171C116.864 89.831 117.49 89.6977 117.861 89.8326C117.769 90.4297 117.03 92.6496 117.882 92.7799C117.984 92.7799 118.081 92.7395 118.153 92.6676C118.225 92.5958 118.265 92.4983 118.265 92.3966C118.271 91.5787 118.389 90.7655 118.617 89.9798C120.868 90.4158 123.065 91.0996 125.167 92.0187L123.836 94.2141C123.81 94.2572 123.792 94.3049 123.785 94.3547C123.777 94.4045 123.78 94.4553 123.792 94.5042C123.804 94.5531 123.825 94.5992 123.855 94.6397C123.885 94.6803 123.922 94.7146 123.965 94.7407C124.009 94.7667 124.056 94.7841 124.106 94.7917C124.156 94.7993 124.207 94.797 124.256 94.785C124.304 94.7729 124.351 94.7514 124.391 94.7216C124.432 94.6917 124.466 94.6542 124.492 94.6111L125.865 92.3468C128.765 93.8093 130.897 95.5187 132.371 97.9854L130.429 98.9558C130.382 98.9773 130.34 99.008 130.306 99.046C130.271 99.084 130.245 99.1285 130.228 99.177C130.211 99.2254 130.204 99.2767 130.207 99.328C130.21 99.3792 130.224 99.4292 130.247 99.4752C130.27 99.5211 130.302 99.5619 130.341 99.5952C130.38 99.6286 130.425 99.6537 130.474 99.6692C130.523 99.6847 130.574 99.6902 130.626 99.6853C130.677 99.6805 130.726 99.6655 130.771 99.6411L132.75 98.653C133.943 100.87 134.544 103.357 134.494 105.875L131.94 105.74C131.838 105.735 131.738 105.77 131.662 105.839C131.586 105.907 131.54 106.003 131.535 106.104C131.53 106.206 131.565 106.306 131.633 106.382C131.701 106.458 131.797 106.504 131.899 106.509V106.511Z" fill="#0A0A0A"/>
</svg>
