<svg width="200" height="200" viewBox="0 0 200 200" fill="none" xmlns="http://www.w3.org/2000/svg">
<path d="M83.1702 63.7C81.5502 63.49 67.1702 63.49 64.5902 63.7C64.546 63.7096 64.507 63.7355 64.4811 63.7726C64.4552 63.8097 64.4441 63.8551 64.4502 63.9C64.4594 63.9335 64.4771 63.964 64.5017 63.9885C64.5262 64.0131 64.5567 64.0308 64.5902 64.04C66.9102 64.24 81.5202 64.33 83.1202 64.12C83.3502 64.1 83.4202 63.73 83.1702 63.7ZM150.72 88.72C150.52 88.72 147.95 89.63 148.63 90L149.35 90.6C149.19 90.96 150.76 92.6 149.68 96.46C149.23 96.15 149.22 96.46 149.28 96.56C150.95 98.28 162.88 107.83 165.54 109.56C165.78 109.91 167.3 109.16 167.54 109.08C172.824 106.827 177.981 104.29 182.99 101.48C184.82 100.48 184.8 96.89 182.58 95.48C180.245 93.9271 177.813 92.5242 175.3 91.28L178.4 88.85C178.62 88.68 178.5 88.05 177.66 88.73C175.851 85.8072 175.119 82.3448 175.59 78.94C175.71 78.87 177.05 78.07 176.46 77.81C173.46 76.56 163.52 72.91 160.46 72.72C159.46 72.65 151.46 79.05 150.71 80.34C149.11 83.01 149.6 86.06 150.77 88.75L150.72 88.72ZM149.92 96.61C150.92 95.52 150.61 92.53 150.13 91.21C151.5 92.31 162.51 100.61 166.01 102.83C167.9 106.83 165.79 108.77 165.86 109.07C160 105 155.23 100.35 149.92 96.61ZM182.51 96.16C184.18 97.02 183.8 100.6 182.6 101.02C177.226 103.899 171.742 106.568 166.16 109.02C166.898 108.024 167.301 106.82 167.31 105.58L175.01 102.42C175.15 102.35 175.01 102.16 174.9 102.19C172.315 103.054 169.784 104.073 167.32 105.24C167.301 104.268 166.998 103.323 166.45 102.52C168.8 101.59 180.81 95.36 182.51 96.16ZM165.84 86C168.782 83.5638 171.861 81.2968 175.06 79.21C174.827 80.4259 174.783 81.6706 174.93 82.9C174.44 83.06 168.38 87.5 168.07 87.74C167.94 87.84 168.07 88.05 168.23 87.97L175 83.37C175.21 84.78 176.06 87.99 177.37 88.86C176.04 89.94 169.46 95.15 167.86 95.15C166.661 93.9927 165.83 92.5062 165.475 90.8779C165.119 89.2495 165.253 87.5522 165.86 86H165.84ZM164.53 77.37C165.23 77.97 162.33 79.66 162.22 79.69C161.89 79.79 161.67 79.45 162.38 78.77C162.74 78.46 164.06 77 164.53 77.38V77.37ZM159.08 79.04C159.58 78.04 161.66 76.38 162.54 75.78C162.584 75.7498 162.632 75.7284 162.684 75.7171C162.736 75.7058 162.789 75.7047 162.841 75.714C162.893 75.7233 162.943 75.7427 162.987 75.7712C163.032 75.7997 163.07 75.8366 163.1 75.88C163.13 75.9233 163.152 75.9722 163.163 76.0238C163.174 76.0754 163.175 76.1287 163.166 76.1807C163.157 76.2327 163.137 76.2823 163.109 76.3268C163.08 76.3713 163.044 76.4098 163 76.44C162.22 77.04 160.1 79.03 159.51 79.44C159.466 79.4645 159.416 79.4773 159.365 79.4773C159.314 79.4773 159.265 79.4645 159.22 79.44C159.185 79.4239 159.154 79.4009 159.128 79.3725C159.101 79.3441 159.081 79.3107 159.068 79.2744C159.055 79.2381 159.05 79.1995 159.052 79.161C159.054 79.1224 159.063 79.0847 159.08 79.05V79.04ZM151.74 80.77C156.03 81.934 160.245 83.3601 164.36 85.04C164.62 85.17 164.53 85.61 164.22 85.55C159.933 84.3554 155.722 82.9028 151.61 81.2C151.564 81.1744 151.529 81.1339 151.509 81.0853C151.49 81.0367 151.487 80.9829 151.502 80.9327C151.518 80.8826 151.549 80.8391 151.593 80.8095C151.636 80.7799 151.688 80.766 151.74 80.77ZM151 89.2C155.77 91.89 164.65 95.31 168 95.81C168.67 95.91 174.11 92.09 175 91.44C175.58 92.01 180.41 94.74 181.64 95.5C179.86 95.59 166.94 101.61 166.01 102.2C160.46 98.05 154.7 93.84 149.01 89.89L151.01 89.2H151ZM99.4102 44.64C99.3493 44.615 99.2811 44.615 99.2202 44.64C98.6302 45 95.2202 49.64 94.5302 50.51C93.8702 49.61 93.2002 48.72 92.5302 47.85C92.4002 47.69 92.1302 47.85 92.2302 48.06C92.9002 49.13 93.6202 50.16 94.3502 51.19C94.4702 51.35 94.7002 51.27 94.8002 51.14C95.4302 50.34 99.4402 45.5 99.6102 44.95C99.6175 44.9165 99.6182 44.8819 99.6121 44.8481C99.606 44.8144 99.5933 44.7822 99.5747 44.7534C99.5561 44.7245 99.532 44.6997 99.5038 44.6802C99.4755 44.6608 99.4437 44.6471 99.4102 44.64ZM80.3402 65.64C74.3402 65.76 67.6902 65.64 65.1102 65.86C65.0572 65.86 65.0063 65.881 64.9688 65.9185C64.9313 65.9561 64.9102 66.0069 64.9102 66.06C64.9102 66.113 64.9313 66.1639 64.9688 66.2014C65.0063 66.2389 65.0572 66.26 65.1102 66.26C68.2102 66.26 77.8602 66.58 80.3402 66.05C80.5502 66 80.5102 65.7 80.3402 65.64ZM80.5602 55.59C80.7602 55.59 80.8202 55.25 80.5602 55.22C78.5602 54.92 66.5602 55.51 63.6502 55.96C63.5972 55.96 63.5463 55.981 63.5088 56.0185C63.4713 56.0561 63.4502 56.1069 63.4502 56.16C63.4502 56.213 63.4713 56.2639 63.5088 56.3014C63.5463 56.3389 63.5972 56.36 63.6502 56.36C67.5702 56.36 76.4802 55.75 80.5102 55.61L80.5602 55.59ZM76.5802 57.59C76.7502 57.59 76.8402 57.25 76.5802 57.19C75.5802 56.94 65.5802 57.19 64.0702 57.36C64.0464 57.3636 64.0236 57.372 64.0031 57.3845C63.9826 57.3971 63.9648 57.4137 63.9508 57.4333C63.9369 57.4529 63.9269 57.4751 63.9217 57.4985C63.9164 57.522 63.9159 57.5463 63.9202 57.57C63.9256 57.6089 63.9429 57.6451 63.9698 57.6738C63.9966 57.7025 64.0317 57.7221 64.0702 57.73C66.0002 57.84 75.4002 57.91 76.5802 57.59ZM97.9002 63.09C98.4502 62.29 92.4202 62.58 92.1602 62.85C91.9002 63.12 92.1602 67.23 92.1602 67.61C92.1602 68.2 97.7502 68.19 97.9702 68.02C98.2197 66.3928 98.2197 64.7371 97.9702 63.11L97.9002 63.09ZM97.4702 67.57C96.9402 67.57 93.0102 67.64 92.6902 67.39C92.6902 65.98 92.6002 64.58 92.5502 63.18H97.5502C97.3702 64.6365 97.3434 66.1079 97.4702 67.57Z" fill="#0A0A0A"/>
<path d="M168.4 90.88C169.8 90.05 171.23 89.24 172.58 88.34C172.77 88.21 172.58 87.87 172.36 87.99L168.25 90.65C168.227 90.6726 168.212 90.7026 168.209 90.7348C168.205 90.767 168.213 90.7994 168.231 90.8265C168.249 90.8536 168.275 90.8738 168.306 90.8835C168.337 90.8933 168.37 90.892 168.4 90.88ZM158.32 101.86C158.2 101.78 158.04 101.97 158.16 102.07C159.16 102.94 164.08 106.38 165.16 107.14C165.3 107.24 165.42 107.01 165.29 106.91C163.19 105.31 160.55 103.2 158.32 101.86ZM93.5402 59.61C94.0602 59.61 98.1302 60.08 98.0902 59.41C98.0502 58.74 97.9902 54.89 97.7302 54.77C97.6602 54.1 92.5902 54.59 92.1202 54.68C91.8302 54.68 91.9502 58.58 91.9702 59.05C92.0002 59.73 93.0902 59.59 93.5402 59.61ZM97.4702 55V59.21C95.7858 59.0367 94.09 59.0032 92.4002 59.11C92.4664 57.7398 92.4397 56.3666 92.3202 55C93.1502 55 96.9402 55.13 97.4702 55ZM164.94 105.22C164.965 105.241 164.997 105.253 165.03 105.253C165.063 105.253 165.095 105.241 165.12 105.22C165.14 105.198 165.151 105.17 165.151 105.14C165.151 105.11 165.14 105.082 165.12 105.06C160.54 101.81 155.99 97.9 151.49 94.85C151.36 94.75 151.16 94.94 151.29 95.07C153.81 97.47 161.68 103.07 164.98 105.27L164.94 105.22ZM98.0702 48.19C98.0563 48.1453 98.0256 48.1078 97.9845 48.0854C97.9434 48.063 97.8953 48.0575 97.8502 48.07C97.82 48.0771 97.7922 48.0919 97.7694 48.1129C97.7466 48.1339 97.7297 48.1605 97.7202 48.19V51.69H92.1802C92.0831 50.0784 91.9029 48.473 91.6402 46.88C93.2044 46.9526 94.7718 46.9125 96.3302 46.76C96.3653 46.7487 96.3954 46.7256 96.4155 46.6946C96.4355 46.6636 96.4443 46.6267 96.4402 46.59C96.4345 46.5687 96.4244 46.5488 96.4106 46.5316C96.3969 46.5144 96.3797 46.5003 96.3602 46.49C95.9902 46.37 91.3602 45.97 91.5002 46.77C91.0402 46.77 91.7102 51.77 91.7102 51.77C91.9502 52.38 92.9602 52.17 93.4902 52.17C94.0202 52.17 97.7002 52.26 98.0002 52.17C98.4802 51.98 98.2102 48.78 98.1002 48.17L98.0702 48.19Z" fill="#0A0A0A"/>
<path d="M194.7 138.91C181.96 139.69 169.217 140.357 156.47 140.91C156.303 139.086 155.969 137.282 155.47 135.52C168.137 135.187 180.803 134.797 193.47 134.35C193.535 134.342 193.595 134.313 193.642 134.268C193.689 134.223 193.72 134.164 193.73 134.1C193.738 134.022 193.716 133.944 193.667 133.882C193.619 133.82 193.548 133.78 193.47 133.77C180.75 134.243 168.033 134.633 155.32 134.94C152.32 124.48 145.99 114.53 138.61 106.65C138.38 103.99 138.37 102.65 137.23 99.98C135.03 94.93 132.6 93.88 132.66 95.08C132.659 95.396 132.71 95.7101 132.81 96.01C132.41 95.51 129.47 92.45 128.87 94.1C128.428 93.8216 127.928 93.6465 127.409 93.5877C126.889 93.5288 126.363 93.5877 125.87 93.76C124 90.76 120.87 90.76 118.87 89.76C115.05 87.76 116.81 81.38 119.62 79C119.62 79 131.69 78.77 131.7 78.62C131.92 75.79 134.33 32.72 134.33 32.72C104.59 32.13 72.59 32.72 43.07 33.32C42.87 33.32 42.7 33.45 42.72 33.63C44.5 48.78 48.87 79.79 48.87 79.79C49.59 80.08 114.96 79.06 118.87 79C117.198 80.8238 116.283 83.2157 116.31 85.69C116.51 91.99 121.52 89.31 125.62 93.92C122.96 95.06 122.62 98.43 123.62 100.84C123.802 101.302 124.047 101.736 124.35 102.13C124.392 103.07 124.659 103.985 125.13 104.8C126.41 107.23 128.69 108.07 128.81 108.43C128.81 114.09 130 120.99 131.13 126.51C127.32 124.51 116.02 119.74 104.4 119.4C105.06 113.67 110.01 112.95 109.33 109.12C111.4 109.04 113.47 108.96 115.54 108.86C116.06 108.86 115.49 107.26 115.43 106.99C114.59 103.29 113.747 99.5966 112.9 95.91C112.77 95.41 112.19 92.05 111.7 92.05L105.25 92.17C103.83 90.82 100.5 90.32 99.14 91.89C97.14 88.04 90.96 88.6 90.76 92.34C89.07 91.19 86.56 90.96 85.03 92.52C84.87 92.59 54.62 93 50.12 93.18H50.04C49.9913 93.2109 49.9568 93.2596 49.9437 93.3157C49.9306 93.3718 49.94 93.4308 49.97 93.48C50.05 94 47.44 106.34 47.13 109.31C47.13 109.73 51.66 109.67 52.13 109.67C45.67 117.24 39.86 125.78 38.13 135.77C27.23 135.6 16.33 135.33 5.42996 135.37C5.37691 135.37 5.32604 135.391 5.28853 135.429C5.25103 135.466 5.22996 135.517 5.22996 135.57C5.22996 135.623 5.25103 135.674 5.28853 135.711C5.32604 135.749 5.37691 135.77 5.42996 135.77C16.28 136.24 27.16 136.29 38.02 136.37C37.6964 138.353 37.5625 140.362 37.62 142.37C26.82 142.15 16.02 141.81 5.22996 141.63C4.98996 141.63 4.94996 142.01 5.22996 142.01C16.03 142.56 26.85 142.76 37.67 142.92C37.95 148.35 40.09 155.01 45.41 157.45C47.6 161.75 52.24 165.62 57.41 164.51C57.26 165.29 57.12 166.09 56.97 166.89C56.91 167.25 57.45 167.4 57.51 167.04C58.98 159.12 60.51 151.16 63.08 143.52C63.16 143.28 62.8 143.19 62.71 143.42C60.21 150.06 58.8 157.04 57.5 163.99C52.21 164.76 47.99 161.39 45.8 156.83C44.6217 154.42 43.9402 151.799 43.7959 149.12C43.6516 146.442 44.0474 143.762 44.96 141.24C47.69 134.24 54.96 129.24 62.1 125.82C69.3597 122.38 77.1563 120.211 85.15 119.41C85.72 124.75 91.86 126.56 96.54 126.28C101.22 126 103.99 124.57 104.39 119.85C104.45 119.85 121.28 120.22 135.81 129.93C140.08 132.78 143.96 136.44 146.23 141.09C148.45 145.58 149.23 151.09 147.23 155.77C144.37 162.59 139.15 163.58 135.69 164.19C134.467 156.868 132.105 149.782 128.69 143.19C128.6 143.02 128.32 143.13 128.41 143.31C131.971 150.989 134.4 159.144 135.62 167.52C135.62 167.78 136.14 167.85 136.14 167.52C136.099 166.605 135.979 165.694 135.78 164.8C139.551 164.476 143.043 162.679 145.5 159.8C153.5 157.8 156.99 149.15 156.5 141.53C169.273 141.01 182.033 140.343 194.78 139.53C195.13 139.4 195 138.91 194.7 138.91ZM48.91 73.47C46.91 60.75 45.32 48.09 43.51 35.36C73.51 34.84 104.29 35.06 133.88 34.56L131.57 72.07C119.08 72.45 50.52 72.84 48.91 73.47ZM109.21 108.56C109.027 108.027 108.676 107.567 108.21 107.25C108.728 106.426 109.009 105.474 109.02 104.5H109.56L110.31 108.5L109.21 108.56ZM108.37 101.23C108.541 101.092 108.698 100.938 108.84 100.77C109.08 101.84 109.28 102.91 109.48 103.98H109C109.049 103.023 108.831 102.07 108.37 101.23ZM115.21 108.3L110.61 108.5C110.49 107.15 110.23 105.82 109.99 104.5C111.428 104.548 112.867 104.511 114.3 104.39C114.6 105.68 114.91 107 115.21 108.3ZM114.21 103.93H109.91L109.19 100.18L113.34 100.06L114.21 103.93ZM113.21 99.63L109.3 99.75C109.375 99.2757 109.341 98.7906 109.201 98.3314C109.061 97.8723 108.817 97.4511 108.49 97.1C108.43 96.8 108.37 96.49 108.29 96.18L112.41 96.09L113.21 99.63ZM111.68 92.49C111.9 93.49 112.1 94.56 112.3 95.6L108.19 95.67C107.98 94.6186 107.71 93.5802 107.38 92.56L111.68 92.49ZM107.9 96.73C107.413 96.5087 106.863 96.4696 106.35 96.62C106.396 96.4961 106.433 96.3691 106.46 96.24H107.78L107.9 96.73ZM106.9 92.57C107.087 93.6198 107.335 94.6582 107.64 95.68H106.53C106.644 94.572 106.337 93.4617 105.67 92.57H106.9ZM82.69 93H84.62C84.2124 93.63 84.0687 94.395 84.22 95.13L82.52 95.62C82.6 94.76 82.69 93.8 82.69 93ZM82.15 93V95.79C81.9806 95.8907 81.817 96.0009 81.66 96.12L76.93 96.2C76.9737 95.1625 76.9436 94.1232 76.84 93.09L82.15 93ZM80.05 100.25H76.9V96.75L81 96.68C80.5663 97.1548 80.2535 97.7273 80.0881 98.3487C79.9228 98.9702 79.9097 99.6224 80.05 100.25ZM76.92 104.88H79.65C79.6886 105.752 80.0117 106.588 80.57 107.26C80.24 107.488 79.9746 107.798 79.7994 108.159C79.6242 108.52 79.5452 108.92 79.57 109.32H76.87C76.9 107.82 76.92 106.35 76.92 104.88ZM79.92 103.67C79.8323 103.879 79.7686 104.097 79.73 104.32H76.97V100.71H80.2C80.4172 101.307 80.807 101.825 81.32 102.2C80.6951 102.523 80.1904 103.039 79.88 103.67H79.92ZM76.57 109.31H64.18C64.31 107.59 64.18 106.51 65.29 105.03L76.46 104.9C76.45 106.37 76.48 107.84 76.53 109.31H76.57ZM65.7 104.48C66.7405 103.428 67.5272 102.152 68 100.75H70.5V104.42L65.7 104.48ZM71.14 93.2L76.38 93.11C76.3236 94.1459 76.3236 95.1841 76.38 96.22L71.11 96.31C71.11 95.28 71.12 94.24 71.14 93.2ZM71.07 96.86L76.36 96.77V100.27H71C71 99.13 71 98 71.07 96.86ZM71 100.74H76.41V104.35L70.78 104.42C70.86 103.19 70.92 102 71 100.74ZM66 93.29L70.79 93.21L70.68 96.32L65.8 96.4C65.9187 95.3678 65.9555 94.3279 65.91 93.29H66ZM65.76 96.94L70.67 96.86L70.58 100.26H68.13C68.25 99.71 68.47 98.81 67.82 98.51C67.17 98.21 66.55 99.71 65.35 100.25C65.46 99.15 65.56 98.05 65.67 96.95L65.76 96.94ZM61.48 93.37L65.61 93.3C65.4671 94.3314 65.3769 95.3694 65.34 96.41H65C65.43 95.36 63.11 94.68 61.11 96.41C61.14 95.9 61.42 93.71 61.39 93.37H61.48ZM65.21 97C65.14 98.09 65.08 99.17 65.01 100.26H63.45C63.15 99.38 63.45 97.31 64.25 97H65.19H65.21ZM60.88 93.4L60.72 96.5H58.85C58.11 94.96 58.58 93.79 57.85 93.42L60.88 93.4ZM60.48 97.06C60.2494 97.3487 60.0547 97.6644 59.9 98L59.16 97.09L60.48 97.06ZM54.09 93.53L57.3 93.47C56.3 93.95 56.15 95.65 56.15 96.58H54.64C54.13 96.14 53.91 96.58 53.53 96.58L54.07 93.47L54.09 93.53ZM56.31 98.61C55.755 98.2397 55.3041 97.7337 55 97.14H56.13C56.1419 97.6327 56.1886 98.1239 56.27 98.61H56.31ZM53 100.11L53.48 97.17C53.3797 98.185 53.5061 99.2097 53.85 100.17L53 100.11ZM54 100.6C54.41 101.97 55 103.22 55.28 104.6L52.28 104.66L52.88 100.59L54 100.6ZM50.37 93.54H53.65C53.46 94.54 53.28 95.62 53.1 96.67C52.01 96.67 50.91 96.73 49.82 96.78C50.0555 95.7113 50.2258 94.6293 50.33 93.54H50.37ZM49.75 97.19H53C52.85 98.19 52.69 99.19 52.53 100.12H49.18C49.35 99.12 49.53 98.15 49.71 97.19H49.75ZM49.14 100.47C50.24 100.53 51.34 100.56 52.44 100.58C52.25 101.93 52.03 103.3 51.85 104.66C50.68 104.66 49.51 104.74 48.34 104.79C48.61 103.35 48.87 101.91 49.14 100.47ZM51.39 109.14H47.53C47.78 107.8 48.04 106.47 48.31 105.14L51.78 105.23C51.569 106.525 51.4255 107.83 51.35 109.14H51.39ZM51.67 109.14L52.26 105.14H55.37C55.3999 105.406 55.3999 105.674 55.37 105.94L52.56 109.15L51.67 109.14ZM44.86 139.87C43.6903 142.535 43.1056 145.42 43.1453 148.33C43.185 151.24 43.8481 154.108 45.09 156.74C35.41 150.2 37.47 135.74 41.59 126.5C44.96 118.93 50.3 112.5 55.77 106.33C56.57 105.42 53.98 99.33 53.89 97.84C53.83 96.73 54.29 96.5 54.7 97.29C55.11 98.08 55.7 98.98 56.51 99.17C56.83 100.11 57.08 99.81 57.04 99.66C56.7 98.01 56.11 95.66 57.21 94.14C58.01 93.08 57.98 95.03 58.06 95.41C58.25 96.32 59.06 98.08 59.79 98.41C59.54 99.12 59.96 98.87 59.99 98.78C61.41 95.05 65.75 95.58 64.35 96.5C63.9808 96.7203 63.6672 97.0224 63.4331 97.383C63.1991 97.7436 63.0509 98.1531 63 98.58C62.49 102.11 65.27 101.58 67.29 99.12C68.13 98.12 68.17 100.27 66.84 102.44C65.71 104.28 64.18 104.94 64 107.35C63.5 113.24 62.29 120.27 61.48 125.45C54.84 128.66 48.05 133 44.82 139.88L44.86 139.87ZM62 125.18C62.9764 120.095 63.6741 114.961 64.09 109.8H79.6C80.18 113.15 84.34 113.6 85.01 118.8C77.0288 119.58 69.2434 121.739 62 125.18ZM104.22 117.11C103.971 117.896 103.81 118.708 103.74 119.53C103.34 123.77 101.54 125.18 96.83 125.53C91.83 125.94 86.41 124.36 85.65 118.97C84.98 114.17 83.44 114.59 80.97 111.23C80.23 110.23 79.57 108.37 80.97 107.59C81.6578 108.346 82.5193 108.922 83.48 109.27C85.64 114.12 86.37 119.71 92.65 120.33C104.79 121.46 102.07 114.85 105.92 109.08C106.668 108.734 107.346 108.253 107.92 107.66C108.357 108.025 108.658 108.526 108.776 109.083C108.894 109.639 108.821 110.219 108.57 110.73C107.59 113.1 105.23 114 104.22 117.11ZM129 94.68C129.34 95.44 129.69 96.19 130 96.95C129.51 96.32 127.11 93.7 126.31 95.1C125.9 95.83 126.76 96.92 127.11 97.57C125.768 97.8076 124.568 98.5523 123.76 99.65C122.48 95 127 92.68 129 94.68ZM124.48 101.49C124.29 101.02 124.09 100.54 123.89 100.07C124.767 99.0425 125.947 98.3181 127.26 98C127.823 99.1614 128.188 100.408 128.34 101.69C128.61 104.25 126.65 102.42 125.7 101.54C125.33 101.16 124.71 101 124.43 101.49H124.48ZM146.13 158.9C149.44 154.26 149.58 148.27 147.66 143.03C144.94 135.62 138.47 130.43 131.66 126.8C130.351 120.753 129.502 114.615 129.12 108.44C129.12 107.5 125.94 106.86 124.95 103.17C124.77 102.5 124.4 100.74 125.61 102C126.82 103.26 128.88 104.42 128.79 101.66C128.67 98.39 126.45 96.21 126.65 95.47C126.9 94.54 128.75 96.29 129.05 96.59C129.832 97.4499 130.541 98.373 131.17 99.35C131.28 99.51 131.55 99.35 131.45 99.2C131.217 98.8 130.977 98.4 130.73 98C130.89 97.66 129.09 94.48 129.41 94.18C129.73 93.88 131.17 94.92 131.49 95.18C133.16 96.63 133.24 97.6 133.81 98.35C133.836 98.3591 133.864 98.3591 133.89 98.35C133.926 98.3529 133.961 98.3421 133.989 98.3197C134.017 98.2974 134.035 98.2653 134.04 98.23C133.98 97.59 133.61 97.23 133.43 96.79C133.25 96.35 132.88 95.36 133.13 95.01C133.25 94.91 133.94 95.42 134.02 95.5C134.68 96.1319 135.23 96.8684 135.65 97.68C138.71 102.91 137.79 106.28 138.31 106.79C145.9 115.34 154.01 127.86 155.65 139.16C156.76 147 154.29 156.14 146.08 158.9H146.13Z" fill="#0A0A0A"/>
<path d="M73.6 50C73.83 49.93 73.74 49.6 73.53 49.57C69.89 49.64 66.02 49.57 62.43 49.67C62.15 49.67 62.19 50.1 62.43 50.14C64.27 50.44 72 50.49 73.6 50ZM169.07 103.48C170.43 102.89 177.07 100.21 177.86 99.76C177.875 99.7469 177.887 99.7307 177.895 99.7126C177.903 99.6945 177.907 99.6748 177.907 99.655C177.907 99.6351 177.903 99.6155 177.895 99.5974C177.887 99.5793 177.875 99.5631 177.86 99.55C177.844 99.5258 177.821 99.5064 177.795 99.4941C177.768 99.4817 177.739 99.4769 177.71 99.48C176.03 99.83 170.59 102.42 168.9 103.26C168.81 103.33 168.93 103.54 169.07 103.48ZM102 80L80.8 80.32C81.71 90.6 102.27 90.76 102 80ZM102 58C102 58.0434 102.016 58.0852 102.046 58.1168C102.076 58.1484 102.117 58.1674 102.16 58.17C105.55 58.25 112.72 58.46 115.43 58.09C115.65 58.09 115.58 57.72 115.43 57.72C111.6 57.72 106.07 57.72 102.21 57.83C102.185 57.8238 102.158 57.8236 102.133 57.8293C102.107 57.8351 102.083 57.8466 102.063 57.8631C102.043 57.8795 102.026 57.9004 102.015 57.9242C102.005 57.9479 101.999 57.9739 102 58ZM73 43C73.28 43 73.16 42.6 72.93 42.56C66.04 42.76 58.54 42.91 51.82 43.06C51.7975 43.0636 51.776 43.0717 51.7567 43.0838C51.7374 43.0959 51.7207 43.1117 51.7076 43.1304C51.6946 43.149 51.6854 43.1701 51.6806 43.1924C51.6759 43.2146 51.6757 43.2376 51.68 43.26C51.6858 43.295 51.7024 43.3274 51.7275 43.3525C51.7526 43.3776 51.7849 43.3942 51.82 43.4C56.71 43.75 66.65 43.22 73 43ZM76.85 40.71C77.08 40.71 77.15 40.31 76.85 40.28C74.61 40.01 52.52 40.37 50.98 40.71C50.83 40.71 50.84 41.01 50.98 41.01C56.65 41 70.24 40.61 76.85 40.71ZM33.8 112.31C34.5704 110.885 35.1615 109.37 35.56 107.8C35.7462 107.26 35.7887 106.682 35.6835 106.121C35.5784 105.56 35.329 105.035 34.96 104.6C35.3229 103.687 35.5096 102.713 35.51 101.73C35.31 100.1 33.58 100.2 32.65 101.45C28.9 106.45 24.76 114.45 24.88 120.6C24.81 120.89 24.96 121.22 25.22 120.98C29.6596 116.581 32.9436 111.154 34.78 105.18C36.03 107.04 34.1 110.25 33.38 112.13C33.29 112.38 33.67 112.53 33.8 112.31ZM25.26 120.19C25.3333 119.08 25.4871 117.977 25.72 116.89L27.26 118C26.61 118.72 25.94 119.47 25.26 120.19ZM34.55 104.19C33.8728 103.622 33.0595 103.239 32.19 103.08C32.5241 102.47 32.9267 101.899 33.39 101.38C33.84 100.96 34.7 100.79 34.96 101.5C35.0482 102.41 34.9073 103.328 34.55 104.17V104.19ZM60 53.25C59.56 53.43 57 57.25 56.53 57.92C55.9481 57.1468 55.2768 56.4453 54.53 55.83C54.4883 55.8106 54.441 55.8071 54.3968 55.82C54.3527 55.8328 54.3147 55.8613 54.29 55.9C54.2754 55.9387 54.2754 55.9813 54.29 56.02C54.8602 56.9537 55.5308 57.8222 56.29 58.61C56.3172 58.64 56.3503 58.664 56.3874 58.6805C56.4244 58.6969 56.4645 58.7054 56.505 58.7054C56.5455 58.7054 56.5855 58.6969 56.6226 58.6805C56.6596 58.664 56.6928 58.64 56.72 58.61V58.56L60 54.08C60.46 53.43 60.33 53.08 60 53.25ZM120 48C120.21 48 120.25 47.6 120 47.57C113.761 47.2597 107.508 47.3499 101.28 47.84C101.07 47.84 101.09 48.21 101.28 48.2C106 48.16 114.85 48.31 120 48Z" fill="#0A0A0A"/>
<path d="M59.9999 59.31C60.3999 59.15 59.5999 56.17 59.4899 55.7C59.4822 55.6584 59.4587 55.6216 59.4243 55.5971C59.3898 55.5727 59.3472 55.5627 59.3055 55.5692C59.2638 55.5757 59.2263 55.5983 59.201 55.632C59.1756 55.6658 59.1645 55.7081 59.1699 55.75C59.2899 56.82 59.4099 57.9 59.6099 58.95C57.9399 59.08 56.4299 59.07 54.7999 59.14C54.4999 57.84 54.2399 56.14 53.7999 54.85C55.0576 54.9557 56.3221 54.9557 57.5799 54.85C58.4099 54.85 58.3499 54.33 57.6399 54.34C57.2199 54.34 53.6399 54.27 53.6399 54.7C53.1699 54.7 54.1599 58.89 54.2199 59.17C54.2302 59.2198 54.2561 59.2651 54.2938 59.2992C54.3316 59.3334 54.3792 59.3547 54.4299 59.36C54.5499 59.88 59.8099 59.8 59.9999 59.31ZM120.56 55.8C120.551 55.7611 120.53 55.7263 120.499 55.7009C120.468 55.6756 120.43 55.6612 120.39 55.66C114.33 55.5 107.85 55.79 101.71 55.78C101.53 55.78 101.52 56.08 101.71 56.1C107.09 56.46 115.41 56.68 120.43 56.02C120.475 56.006 120.513 55.9758 120.537 55.9351C120.561 55.8944 120.569 55.8462 120.56 55.8ZM54.5699 52.08C55.9726 52.1191 57.3764 52.0556 58.7699 51.89C59.6399 52.11 58.3099 46.65 58.1499 46.4C58.1288 46.3528 58.0931 46.3138 58.048 46.2886C58.003 46.2633 57.951 46.2533 57.8999 46.26C56.9999 46.26 52.8199 46.26 52.2299 46.39C51.5099 45.81 52.5599 50.74 52.7099 51.33C52.9999 52.32 53.6399 52.08 54.5699 52.08ZM52.3499 46.73C54.195 46.9553 56.059 46.9821 57.9099 46.81L58.5499 51.43L53.3099 51.7C53.3499 51.36 52.4699 47.39 52.3499 46.73ZM115.82 50.1C115.873 50.1 115.924 50.0789 115.961 50.0414C115.999 50.0039 116.02 49.953 116.02 49.9C116.02 49.8469 115.999 49.796 115.961 49.7585C115.924 49.721 115.873 49.7 115.82 49.7C114.58 49.45 103.92 49.83 101.71 50.02C101.54 50.02 101.54 50.31 101.71 50.32C102.91 50.37 114.63 50.4 115.82 50.1ZM31.8499 81.82C32.0399 81.82 33.4499 81.02 33.7799 82.32C34.2399 84.1 36.0399 83.03 36.3299 81.67C36.6999 79.99 35.0999 78.67 33.2099 78.67C29.3699 78.67 30.2499 82 31.8499 81.82ZM33.2099 79.06C35.3699 79.13 36.6999 81.17 35.3899 82.37C34.2699 83.37 34.3899 81.93 33.8499 81.37C32.7699 80.37 31.9099 81.58 31.2999 81.07C30.0499 80.07 32.4399 79 33.2099 79.06ZM56.6299 62.77C55.0599 62.77 54.9999 62.51 55.1999 64.04C55.2599 64.47 55.5699 67.51 56.0899 67.54C56.1999 68.02 60.6899 67.85 61.2599 67.68C62.0299 67.68 61.2599 65.31 61.2599 65.04C60.5999 61.56 61.4199 62.64 56.6299 62.77ZM56.3399 67.31C56.0899 66.05 55.8999 64.38 55.5399 63.18C57.1772 63.34 58.8286 63.2794 60.4499 63C60.5516 64.3923 60.769 65.7737 61.0999 67.13C59.5399 67.2 57.9199 67.28 56.3399 67.31ZM122.13 40.12C120.29 39.95 93.7899 40.12 90.4299 40.38C90.3865 40.3873 90.3476 40.4113 90.3215 40.4467C90.2954 40.4821 90.2841 40.5263 90.2899 40.57C90.297 40.6044 90.314 40.6361 90.3389 40.6609C90.3638 40.6858 90.3954 40.7029 90.4299 40.71C93.2799 40.86 120.09 40.79 122.13 40.56C122.188 40.56 122.244 40.5368 122.285 40.4955C122.327 40.4543 122.35 40.3983 122.35 40.34C122.35 40.2816 122.327 40.2257 122.285 40.1844C122.244 40.1431 122.188 40.12 122.13 40.12ZM76.9999 47.47C77.2299 47.42 77.1499 47.11 76.9499 47.07L61.7599 47.45C61.7378 47.4523 61.7164 47.4592 61.6972 47.4703C61.6779 47.4813 61.6612 47.4963 61.648 47.5141C61.6349 47.532 61.6256 47.5524 61.6207 47.5741C61.6159 47.5957 61.6156 47.6182 61.6199 47.64C61.6256 47.675 61.6423 47.7073 61.6674 47.7324C61.6925 47.7575 61.7248 47.7742 61.7599 47.78C65.5699 48.06 73.6899 48.14 76.9999 47.47ZM137.23 75.58C137.3 76.34 138.06 83.92 138.34 84.47C140.34 88.37 147.7 88.47 147.86 82.7C148.14 80.3 149.11 73.41 148.73 71.7C148.84 71.14 149.42 68.7 149.53 67.41C149.53 67.2 149.93 61.49 149.13 62.36C148.062 63.7815 147.115 65.2902 146.3 66.87C146.16 67.48 146.02 68.08 145.87 68.68C145.427 68.5131 144.968 68.3957 144.5 68.33C144.5 67.92 144.2 65.92 144.06 65.12C143.37 63.78 142.66 62.58 142.06 61.19C141.21 59.1 141.19 59.06 140.95 61.36C140.549 63.703 140.549 66.097 140.95 68.44C136.42 69.38 136.89 72.05 137.22 75.58H137.23ZM148.17 64.58C148.292 64.6983 148.439 64.789 148.599 64.8459C148.759 64.9028 148.93 64.9247 149.1 64.91V67.43C148.679 67.4708 148.253 67.4264 147.85 67.2992C147.446 67.1721 147.072 66.9649 146.75 66.69C147.24 66 147.75 65.29 148.17 64.58ZM146.73 67.21C147.392 67.6809 148.187 67.9295 149 67.92C148.67 69.78 148.34 71.63 148.08 73.5C147.74 74.72 146.08 75.16 145 75.31C145.66 72.67 146.16 69.83 146.73 67.18V67.21ZM144.73 74.59C144.681 74.841 144.648 75.0948 144.63 75.35L142.19 75.41L141.19 65.99C141.642 66.1265 142.121 66.1505 142.584 66.0598C143.048 65.9692 143.482 65.7667 143.85 65.47C143.85 65.47 144.5 74.44 144.73 74.56V74.59ZM141.31 62.79C141.463 62.83 141.623 62.8382 141.779 62.8141C141.936 62.79 142.086 62.7342 142.22 62.65L143.59 65.11C143.231 65.3776 142.815 65.5583 142.374 65.6381C141.933 65.718 141.48 65.6946 141.05 65.57C141.033 64.6266 141.12 63.6842 141.31 62.76V62.79ZM148.24 74.31C148.06 76.83 147.74 82.15 147.09 84.53C145.94 87.62 140.93 87.67 138.72 84.53C138.3 81.06 137.88 77.53 137.47 74.11C139.34 76.82 146.61 76.49 148.24 74.28V74.31Z" fill="#0A0A0A"/>
<path d="M13.81 85.3299C15.3321 86.1248 16.9389 86.7454 18.6 87.1799C15.41 91.5699 24.54 97.8299 32.89 94.4899C36.72 92.9599 40.55 88.0999 36.8 84.7299C40.8 81.4999 42.21 76.8399 42.04 71.7299C41.78 63.8499 38.3 58.0499 30.33 56.1799C26.4035 55.2611 22.2889 55.5789 18.55 57.0899L17 54.4099C17.49 54.1499 18 53.8999 18.5 53.6799C19.82 53.2299 19.42 52.2599 18.64 52.5499C3.32004 58.1399 -0.219958 78.2899 13.81 85.3299ZM18.72 86.4799C18.44 85.4799 19.19 84.4799 18.84 83.3899C18.04 80.7999 14.69 82.2999 13.84 80.5499C12.91 78.6399 15.39 78.3099 15.89 76.9399C15.9785 76.7001 16.001 76.4409 15.9553 76.1894C15.9095 75.938 15.7972 75.7033 15.63 75.5099C14.19 73.7099 10.86 75.6099 11.81 71.4099C12.53 68.2399 15.59 66.7399 17.81 68.1399C20.03 69.5399 21.36 70.4799 24.17 68.8399C28.85 66.0899 28.27 71.8399 26.84 73.5799C26.08 74.5199 24.7 74.4699 23.64 74.8699C20.18 76.1699 20.2 78.4999 22.94 79.0699C24 79.2899 25.36 79.1899 26.19 79.9899C28.44 82.1799 23.79 86.8599 22.32 87.6299C21.53 87.4699 19.12 86.9999 18.72 86.4799ZM31.41 57.0599C37.3 58.8899 40.41 63.1499 41.25 69.2399C41.6493 71.8682 41.5509 74.5481 40.96 77.1399C40.72 77.4699 37.34 78.3999 36.25 76.9999C35.8292 76.4341 35.5482 75.7767 35.4301 75.0815C35.3119 74.3863 35.3598 73.6731 35.57 72.9999C36.22 71.3199 38.43 69.8399 37.75 68.1199C36.81 65.7399 34.06 68.9899 32.9 68.3199C31.16 67.3199 34.42 65.3999 30.7 64.7099C29.33 64.4599 28.21 65.0199 27.2 63.5099C24.89 60.0499 30.9 57.0499 31.41 57.0299V57.0599ZM20 61.4899C20.0432 61.5581 20.1086 61.6093 20.1851 61.6348C20.2616 61.6603 20.3446 61.6586 20.42 61.6299C20.5067 61.5943 20.576 61.5264 20.6133 61.4405C20.6507 61.3546 20.6531 61.2576 20.62 61.1699L18.8 57.6199C22.5091 56.1327 26.5927 55.8527 30.47 56.8199C25.47 58.4699 24.88 64.1099 28.47 65.0799C29.23 65.2899 32.63 64.9899 32.04 66.4399C31.9203 66.6752 31.8531 66.9336 31.8432 67.1974C31.8333 67.4612 31.8809 67.724 31.9827 67.9675C32.0845 68.2111 32.2381 68.4295 32.4327 68.6078C32.6274 68.7861 32.8585 68.9199 33.11 68.9999C34.51 69.2499 36.01 67.1399 37.04 67.9999C38.84 69.4999 34.14 71.8199 34.94 75.1599C35.54 77.7199 36.6 78.5299 39.2 78.1599C39.7696 78.1109 40.322 77.9405 40.82 77.6599C38.67 85.1899 30.63 88.6599 23.28 87.7499C24.76 86.3899 27.06 83.6899 27.28 81.7499C27.62 78.3099 23.67 78.9999 22.22 78.2399C20.22 77.2399 23.08 75.4999 24.91 75.0999C25.5097 75.0012 26.0901 74.8089 26.63 74.5299C29.63 72.6899 28.8 65.2899 24.45 68.0199C20.73 70.3499 19.58 68.3699 17.85 67.4799C15.08 66.0699 11.28 68.2899 11.09 72.4799C10.98 75.3299 13.33 74.7199 14.7 75.4799C14.9456 75.572 15.1506 75.7481 15.2787 75.9769C15.4068 76.2057 15.4498 76.4725 15.4 76.7299C15.08 77.7299 13.63 77.9299 13.23 79.1399C13.0719 79.6119 13.0776 80.1234 13.2464 80.5916C13.4152 81.0599 13.7371 81.4575 14.16 81.7199C15.47 82.4799 17.79 81.8199 18.34 83.6299C18.61 84.5099 18.08 85.4099 18.14 86.2999C15.5887 85.3829 13.3421 83.7755 11.6506 81.6567C9.95907 79.5379 8.88915 76.9911 8.56004 74.2999C7.66004 67.4999 11.81 60.8899 17.91 57.9999C18.54 59.1599 19.33 60.3599 20 61.4899ZM11 58.8199C12.5012 57.2633 14.2311 55.9448 16.13 54.9099C16.6874 55.7651 17.1982 56.6497 17.66 57.5599C14.5216 59.018 11.9096 61.4092 10.1807 64.407C8.45177 67.4048 7.69024 70.8632 8.00004 74.3099C8.20851 76.2855 8.82772 78.1956 9.81795 79.9178C10.8082 81.6399 12.1475 83.136 13.75 84.3099C4.19004 78.9999 3.79004 66.4799 11 58.8199ZM117.73 65.8699C116.87 65.6799 104.01 65.6199 102.19 65.8699C102.145 65.8699 102.102 65.8879 102.07 65.9197C102.038 65.9516 102.02 65.9949 102.02 66.0399C102.02 66.085 102.038 66.1283 102.07 66.1602C102.102 66.192 102.145 66.2099 102.19 66.2099C102.88 66.3099 116.32 66.5399 117.73 66.2099C117.777 66.1996 117.818 66.1736 117.848 66.1364C117.878 66.0991 117.894 66.0527 117.894 66.0049C117.894 65.9572 117.878 65.9108 117.848 65.8735C117.818 65.8363 117.777 65.8103 117.73 65.7999V65.8699ZM122 42.8699C112.35 42.9799 99.88 42.6499 91.18 42.8699C90.94 42.8699 90.96 43.2099 91.18 43.2299C94.83 43.6299 119.06 43.5999 122 43.2299C122.029 43.2275 122.056 43.2193 122.082 43.2057C122.107 43.1921 122.129 43.1735 122.147 43.151C122.165 43.1286 122.178 43.1027 122.185 43.075C122.193 43.0472 122.194 43.0183 122.19 42.9899C122.174 42.9532 122.147 42.9221 122.113 42.9007C122.08 42.8793 122.04 42.8686 122 42.8699ZM120.93 63.6999C115.08 63.5699 107.77 63.9299 101.54 63.7699C101.36 63.7699 101.32 64.0299 101.54 64.0499C105.37 64.4299 117.36 64.8099 120.97 64.1099C121.16 64.0599 121.18 63.6999 120.93 63.6999Z" fill="#0A0A0A"/>
</svg>
